<svg xmlns="http://www.w3.org/2000/svg" width="430" height="110" viewBox="0 0 430 110">
  <defs>
    <style>
      .script {
        font-family: "Pacifico", "Brush Script MT", cursive;
        font-size: 54px;
        fill: #B97A63;
      }
      .sans {
        font-family: ui-sans-serif, system-ui, -apple-system, Segoe UI, Roboto, Helvetica, Arial;
        font-size: 23px;
        letter-spacing: 1.8px;
        fill: #8AA79A;
        font-weight: 700;
      }
    </style>
  </defs>

  <!-- wifi heart icon -->
  <g transform="translate(330 26)">
    <path d="M22 42c-8.5-6.5-17-13-17-22a9.5 9.5 0 0 1 17-5.5a9.5 9.5 0 0 1 17 5.5c0 9-8.5 15.5-17 22Z" fill="#B97A63" opacity="0.9"></path>
    <path d="M22 8c9 0 16 5.5 16 5.5" fill="none" stroke="#8AA79A" stroke-width="2.8" stroke-linecap="round"></path>
    <path d="M22 15c6.5 0 11 4 11 4" fill="none" stroke="#8AA79A" stroke-width="2.8" stroke-linecap="round"></path>
    <path d="M22 22c4 0 6.5 2 6.5 2" fill="none" stroke="#8AA79A" stroke-width="2.8" stroke-linecap="round"></path>
  </g>

  <!-- text -->
  <text x="16" y="66" class="script">Newborn</text>
  <text x="195" y="66" class="sans">CARE HUB</text>
</svg>
